@startuml

skinparam classAttributeFontName Monospaced
skinparam classBackgroundColor #FFFFFF
skinparam classBorderColor #D8D8D8
skinparam packageBorderColor #BDBDBD
skinparam classArrowColor #0B615E
skinparam shadowing false

'skinparam monochrome true
'skinparam nodesep 100
'skinparam ranksep 100
'note "All <color:black><b> (M)odels</b></color> extends <b>pyoko.Model</b> class" as N #orchid
title
<size:24>Entity Based Model Diagram</size>
( All Models extends <b>pyoko.Model</b> class )
endtitle
'legend left
'n..*     n or more instances
'n..m    Min n, Max m instances
'endlegend


' field_name            field_type     null blank
'                                      _ = True
'                                      * * = False

class NufusKayitlari <<(M,orchid)>> {
tckn                       String
ad                         String
soyad                      String
ilk_soy_ad                 String
dogum_tarihi               Date
cinsiyet                   String
emekli_sicil_no            Int
memuriyet_baslama_tarihi   Date
kurum_sicil                String
maluliyet_kod              Int
yetki_seviyesi             String
aciklama                   String
kuruma_baslama_tarihi      Date
gorev_tarihi_6495          Date
emekli_sicil_6495          Int
durum                      Boolean
sebep                      Int
sync                       Int
--
personel = Personel(one_to_one=True)

}


class HizmetKurs <<(M,orchid)>> {
tckn                    String   * *
kayit_no                String
kurs_ogrenim_suresi     Int      * *
mezuniyet_tarihi        Date     * *
kurs_nevi               Int      * *
bolum_ad                Int      * *
okul_ad                 Int   * *
ogrenim_yeri            String
denklik_tarihi          Date
denklik_okulu           String
denklik_bolum           String
kurum_onay_tarihi       Date     * *
sync                    Int
--
personel       Personel()    * *

}

class HizmetOkul <<(M,orchid)>>{
kayit_no                String
tckn                    String   * *
ogrenim_durumu          Int      * *
mezuniyet_tarihi        Date     * *
okul_ad                 String
bolum                   String
ogrenim_yeri            Int
denklik_tarihi          Date
denklik_okul            String
denklik_bolum           String
ogrenim_suresi          Int      * *
hazirlik                Int      * *
kurum_onay_tarihi       Date     * *
sync                    Int
--
personel       Personel()    * *

}


class HizmetMahkeme <<(M,orchid)>>{
tckn                    String   * *
kayit_no                String
mahkeme_ad              String   * *
sebep                   Int      * *
karar_tarihi            Date     * *
karar_sayisi            Int      * *
kesinlesme_tarihi       Date
asil_dogum_tarihi       Date
tashih_dogum_tarihi     Date
asil_ad                 String
tashih_ad               String
asil_soyad              String
tashih_soyad            String
gecerli_dogum_tarihi    Date
aciklama                String
gun_sayisi              Int
kurum_onay_tarihi       Date     * *
sync                    Int
--
personel       Personel()    * *

}

class HizmetBirlestirme <<(M,orchid)>>{
tckn                          String   * *
kayit_no                      String
sgk_nevi                      Int      * *
sgk_sicil_no                  String   * *
baslama_tarihi                Date     * *
bitis_tarihi                  Date     * *
sure                          Int      * *
kamu_isyeri_ad                String
ozel_isyeri_ad                String
bag_kur_meslek                String
ulke_kod                      Int
banka_sandık_kod              Int
kıdem_tazminat_odeme_durumu   String
ayrilma_nedeni                String
kha_durum                     Int
kurum_onay_tarihi             Date     * *
sync                          Int
--
personel       Personel()    * *

}

class HizmetTazminat <<(M,orchid)>>{
kayit_no                String
tckn                    String   * *
unvan_kod               Int      * *
makam                   Int
gorev                   Int
temsil                  Int
tazminat_tarihi         Date     * *
tazminat_bitis_tarihi   Date
kadrosuzluk             Int
kurum_onay_tarihi       Date     * *
sync                    Int
--
personel       Personel()    * *

}

class HizmetUnvan <<(M,orchid)>>{
kayit_no                String
tckn                    String   * *
unvan_kod               Int      * *
unvan_tarihi            Date     * *
unvan_bitis_tarihi      Date
hizmet_sinifi           String   * *
asil_vekil              String   * *
atama_sekli             String   * *
kurum_onay_tarihi       Date     * *
fhz_orani               Float
sync                    Int
--
personel       Personel()    * *

}

class HizmetAcikSure <<(M,orchid)>>{
tckn                          String   * *
kayit_no                      String
acik_sekil                    Int      * *
iade_sekil                    Int
hizmet_durum                  Int      * *
husus                         Int      * *
aciga_alinma_tarih            Date
goreve_son_tarih              Date
goreve_iade_istem_tarih       Date
goreve_iade_tarih             Date
acik_aylik_bas_tarih          Date
acik_aylik_bit_tarih          Date
goreve_son_aylik_bas_tarih    Date
goreve_son_aylik_bit_tarih    Date
s_yonetim_kald_tarih          Date
aciktan_atanma_tarih          Date
kurum_onay_tarihi             Date     * *
sync                          Int
--
personel       Personel()    * *

}

class HizmetBorclanma <<(M,orchid)>>{
tckn                 String   * *
kayit_no             String
ad                   String   * *
soyad                String   * *
emekli_sicil         String   * *
derece               Int      * *
kademe               Int      * *
ekgosterge           Int      * *
baslama_tarihi       Date     * *
bitis_tarihi         Date     * *
gun_sayisi           Int      * *
kanun_kod            Int      * *
borc_nevi            String   * *
toplam_tutar         Float    * *
odenen_miktar        Float
calistigi_kurum      String   * *
isyeri_il            String   * *
isyeri_ilce          String   * *
borclanma_tarihi     Date
odeme_tarihi         Date
kurum_onay_tarihi    Date     * *
sync                 Int
--
personel       Personel()    * *

}

class HizmetIHS <<(M,orchid)>>{
tckn                 String   * *
kayit_no             String
baslama_tarihi       Date     * *
bitis_tarihi         Date     * *
ihz_nevi             Int      * *
sync                 Int
--
personel       Personel()    * *

}

class HizmetIstisnaiIlgi <<(M,orchid)>>{
tckn                 String   * *
kayit_no             String
baslama_tarihi       Date     * *
bitis_tarihi         Date     * *
gun_sayisi           Int      * *
istisnai_ilgi_nevi   Int      * *
kha_durum            Int      * *
kurum_onay_tarihi    Date     * *
sync                 Int
--
personel       Personel()    * *

}


class HizmetKayitlari<<(M,orchid)>>{
tckn                                String   * *
kayit_no                            String
baslama_tarihi                      Date
bitis_tarihi                        Date
gorev                               String   * *
unvan_kod                           Int      * *
yevmiye                             String
ucret                               String
hizmet_sinifi                       Int      * *
kadro_derece                        Int      * *
odeme_derece                        Int      * *
odeme_kademe                        Int      * *
odeme_ekgosterge                    Int      * *
kazanilmis_hak_ayligi_derece        Int      * *
kazanilmis_hak_ayligi_kademe        Int      * *
kazanilmis_hak_ayligi_ekgosterge    Int      * *
emekli_derece                       Int      * *
emekli_kademe                       Int      * *
emekli_ekgosterge                   Int      * *
sebep_kod                           Int      * *
kurum_onay_tarihi                   Date     * *
sync                                Int
--
personel             **Personel()**

}

class AskerlikKayitlari <<(M,orchid)>> {
askerlik_nevi                    Int      * *
baslama_tarihi                   Date
bitis_tarihi                     Date
kayit_no                         String
kita_baslama_tarihi              Date
kita_bitis_tarihi                Date
muafiyet_neden                   String
sayilmayan_gun_sayisi            Int
sinif_okulu_sicil                String
subayliktan_erlige_gecis_tarihi  Date
subay_okulu_giris_tarihi         Date
tckn                             String   * *
tegmen_nasp_tarihi               Date
gorev_yeri                       String
kurum_onay_tarihi                Date     * *
astegmen_nasp_tarihi             Date
sync                             Int
--
personel                         **Personel()**

}

class HitapSebep <<(M,orchid)>> {
sebep_no                         Int
ad                               String
nevi                             Int
zorunlu_alan                     String

}

Personel "1" -- "1" NufusKayitlari
Personel "1" -- "0..*" HizmetKurs
Personel "1" -- "0..*" HizmetOkul
Personel "1" -- "0..*" HizmetMahkeme
Personel "1" -- "0..*" HizmetBirlestirme
Personel "1" -- "0..*" HizmetTazminat
Personel "1" -- "0..*" HizmetUnvan
Personel "1" -- "0..*" HizmetAcikSure
Personel "1" -- "0..*" AskerlikKayitlari
Personel "1" -- "0..*" HizmetBorclanma
Personel "1" -- "0..*" HizmetIHS
Personel "1" -- "0..*" HizmetIstisnaiIlgi
Personel "1" -- "0..*" HizmetKayitlari

@enduml